<mxfile host="app.diagrams.net" agent="Mozilla/5.0 (Windows NT 10.0; Win64; x64; rv:131.0) Gecko/20100101 Firefox/131.0" version="24.8.0">
  <diagram name="Overordnet principdiagram" id="DkwvMmTwISivUpzGL9SA">
    <mxGraphModel dx="1094" dy="663" grid="1" gridSize="5" guides="1" tooltips="1" connect="1" arrows="1" fold="1" page="1" pageScale="1" pageWidth="827" pageHeight="1169" math="0" shadow="0">
      <root>
        <mxCell id="0" />
        <mxCell id="1" parent="0" />
        <mxCell id="Ex0_d51_IfUy_OUosHDZ-33" value="" style="swimlane;startSize=0;" vertex="1" parent="1">
          <mxGeometry x="155" y="160" width="250" height="220" as="geometry" />
        </mxCell>
        <mxCell id="Ex0_d51_IfUy_OUosHDZ-36" value="&lt;font style=&quot;font-size: 18px;&quot;&gt;Satellite&lt;/font&gt;" style="text;html=1;align=center;verticalAlign=middle;whiteSpace=wrap;rounded=0;" vertex="1" parent="Ex0_d51_IfUy_OUosHDZ-33">
          <mxGeometry x="15" width="190" height="35" as="geometry" />
        </mxCell>
        <mxCell id="Ex0_d51_IfUy_OUosHDZ-39" value="" style="endArrow=classic;html=1;rounded=0;exitX=1.015;exitY=0.781;exitDx=0;exitDy=0;exitPerimeter=0;" edge="1" parent="Ex0_d51_IfUy_OUosHDZ-33" source="Ex0_d51_IfUy_OUosHDZ-4">
          <mxGeometry width="50" height="50" relative="1" as="geometry">
            <mxPoint x="55" y="215" as="sourcePoint" />
            <mxPoint x="105" y="165" as="targetPoint" />
          </mxGeometry>
        </mxCell>
        <mxCell id="Ex0_d51_IfUy_OUosHDZ-1" value="&lt;br&gt;&lt;div&gt;&lt;br&gt;&lt;/div&gt;&lt;div&gt;&lt;br&gt;&lt;/div&gt;&lt;div&gt;Radio link&lt;/div&gt;" style="rounded=0;whiteSpace=wrap;html=1;" vertex="1" parent="1">
          <mxGeometry x="260" y="200" width="100" height="70" as="geometry" />
        </mxCell>
        <mxCell id="Ex0_d51_IfUy_OUosHDZ-2" value="" style="verticalLabelPosition=bottom;shadow=0;dashed=0;align=center;html=1;verticalAlign=top;shape=mxgraph.electrical.radio.aerial_-_antenna_1;" vertex="1" parent="1">
          <mxGeometry x="370" y="200" width="30" height="40" as="geometry" />
        </mxCell>
        <mxCell id="Ex0_d51_IfUy_OUosHDZ-4" value="&lt;div&gt;&lt;br&gt;&lt;/div&gt;&lt;div&gt;&lt;br&gt;&lt;/div&gt;&lt;div&gt;&lt;br&gt;&lt;/div&gt;&lt;div&gt;&lt;br&gt;&lt;/div&gt;&lt;div&gt;&lt;br&gt;&lt;/div&gt;&lt;div&gt;&lt;br&gt;&lt;/div&gt;&lt;div&gt;Processing&lt;/div&gt;&lt;div&gt;unit&lt;br&gt;&lt;/div&gt;" style="rounded=0;whiteSpace=wrap;html=1;" vertex="1" parent="1">
          <mxGeometry x="170" y="200" width="70" height="160" as="geometry" />
        </mxCell>
        <mxCell id="Ex0_d51_IfUy_OUosHDZ-5" value="&lt;div&gt;&lt;br&gt;&lt;/div&gt;&lt;div&gt;&lt;br&gt;&lt;/div&gt;&lt;div&gt;&lt;br&gt;&lt;/div&gt;&lt;div&gt;Driver &amp;amp; Transducer&lt;/div&gt;" style="rounded=0;whiteSpace=wrap;html=1;" vertex="1" parent="1">
          <mxGeometry x="260" y="290" width="100" height="70" as="geometry" />
        </mxCell>
        <mxCell id="Ex0_d51_IfUy_OUosHDZ-6" value="&lt;br&gt;&lt;div&gt;&lt;br&gt;&lt;/div&gt;&lt;div&gt;&lt;br&gt;&lt;/div&gt;&lt;div&gt;Radio link&lt;/div&gt;" style="rounded=0;whiteSpace=wrap;html=1;" vertex="1" parent="1">
          <mxGeometry x="560" y="200" width="100" height="70" as="geometry" />
        </mxCell>
        <mxCell id="Ex0_d51_IfUy_OUosHDZ-8" value="&lt;div&gt;&lt;br&gt;&lt;/div&gt;&lt;div&gt;&lt;br&gt;&lt;/div&gt;&lt;div&gt;&lt;br&gt;&lt;/div&gt;&lt;div&gt;&lt;br&gt;&lt;/div&gt;&lt;div&gt;&lt;br&gt;&lt;/div&gt;&lt;div&gt;&lt;br&gt;&lt;/div&gt;&lt;div&gt;Processing&lt;/div&gt;&lt;div&gt;unit&lt;br&gt;&lt;/div&gt;" style="rounded=0;whiteSpace=wrap;html=1;" vertex="1" parent="1">
          <mxGeometry x="680" y="200" width="70" height="160" as="geometry" />
        </mxCell>
        <mxCell id="Ex0_d51_IfUy_OUosHDZ-9" value="&lt;div&gt;&lt;br&gt;&lt;/div&gt;&lt;div&gt;&lt;br&gt;&lt;/div&gt;&lt;div&gt;&lt;br&gt;&lt;/div&gt;&lt;div&gt;Driver &amp;amp; Transducer&lt;/div&gt;" style="rounded=0;whiteSpace=wrap;html=1;" vertex="1" parent="1">
          <mxGeometry x="560" y="290" width="100" height="70" as="geometry" />
        </mxCell>
        <mxCell id="Ex0_d51_IfUy_OUosHDZ-11" value="" style="endArrow=none;html=1;rounded=0;exitX=1;exitY=0.571;exitDx=0;exitDy=0;exitPerimeter=0;entryX=0.5;entryY=1;entryDx=0;entryDy=0;entryPerimeter=0;" edge="1" parent="1" source="Ex0_d51_IfUy_OUosHDZ-1" target="Ex0_d51_IfUy_OUosHDZ-2">
          <mxGeometry width="50" height="50" relative="1" as="geometry">
            <mxPoint x="470" y="330" as="sourcePoint" />
            <mxPoint x="520" y="280" as="targetPoint" />
          </mxGeometry>
        </mxCell>
        <mxCell id="Ex0_d51_IfUy_OUosHDZ-13" value="" style="endArrow=none;html=1;rounded=0;exitX=0.5;exitY=1;exitDx=0;exitDy=0;exitPerimeter=0;entryX=0.5;entryY=1;entryDx=0;entryDy=0;entryPerimeter=0;" edge="1" parent="1" source="Ex0_d51_IfUy_OUosHDZ-14">
          <mxGeometry width="50" height="50" relative="1" as="geometry">
            <mxPoint x="520" y="240" as="sourcePoint" />
            <mxPoint x="560" y="240" as="targetPoint" />
          </mxGeometry>
        </mxCell>
        <mxCell id="Ex0_d51_IfUy_OUosHDZ-14" value="" style="verticalLabelPosition=bottom;shadow=0;dashed=0;align=center;html=1;verticalAlign=top;shape=mxgraph.electrical.radio.aerial_-_antenna_1;" vertex="1" parent="1">
          <mxGeometry x="520" y="200" width="30" height="40" as="geometry" />
        </mxCell>
        <mxCell id="Ex0_d51_IfUy_OUosHDZ-15" value="&lt;font style=&quot;font-size: 24px;&quot;&gt;RF&lt;/font&gt;" style="text;html=1;align=center;verticalAlign=middle;whiteSpace=wrap;rounded=0;" vertex="1" parent="1">
          <mxGeometry x="295" y="210" width="30" height="30" as="geometry" />
        </mxCell>
        <mxCell id="Ex0_d51_IfUy_OUosHDZ-16" value="&lt;font style=&quot;font-size: 24px;&quot;&gt;RF&lt;/font&gt;" style="text;html=1;align=center;verticalAlign=middle;whiteSpace=wrap;rounded=0;" vertex="1" parent="1">
          <mxGeometry x="595" y="210" width="30" height="30" as="geometry" />
        </mxCell>
        <mxCell id="Ex0_d51_IfUy_OUosHDZ-17" value="" style="group" vertex="1" connectable="0" parent="1">
          <mxGeometry x="290.005" y="300" width="37.5" height="30" as="geometry" />
        </mxCell>
        <mxCell id="Ex0_d51_IfUy_OUosHDZ-18" value="" style="endArrow=none;html=1;rounded=0;" edge="1" parent="Ex0_d51_IfUy_OUosHDZ-17">
          <mxGeometry width="50" height="50" relative="1" as="geometry">
            <mxPoint y="7.39500000000001" as="sourcePoint" />
            <mxPoint x="15" y="7.39500000000001" as="targetPoint" />
          </mxGeometry>
        </mxCell>
        <mxCell id="Ex0_d51_IfUy_OUosHDZ-19" value="" style="endArrow=none;html=1;rounded=0;" edge="1" parent="Ex0_d51_IfUy_OUosHDZ-17">
          <mxGeometry width="50" height="50" relative="1" as="geometry">
            <mxPoint y="22.39500000000001" as="sourcePoint" />
            <mxPoint x="15" y="22.39500000000001" as="targetPoint" />
          </mxGeometry>
        </mxCell>
        <mxCell id="Ex0_d51_IfUy_OUosHDZ-20" value="" style="shape=cylinder3;whiteSpace=wrap;html=1;boundedLbl=1;backgroundOutline=1;size=4.724137931034591;rotation=90;" vertex="1" parent="Ex0_d51_IfUy_OUosHDZ-17">
          <mxGeometry x="3.75" width="30" height="30" as="geometry" />
        </mxCell>
        <mxCell id="Ex0_d51_IfUy_OUosHDZ-21" value="" style="group" vertex="1" connectable="0" parent="1">
          <mxGeometry x="590.005" y="300" width="37.5" height="30" as="geometry" />
        </mxCell>
        <mxCell id="Ex0_d51_IfUy_OUosHDZ-22" value="" style="endArrow=none;html=1;rounded=0;" edge="1" parent="Ex0_d51_IfUy_OUosHDZ-21">
          <mxGeometry width="50" height="50" relative="1" as="geometry">
            <mxPoint y="7.39500000000001" as="sourcePoint" />
            <mxPoint x="15" y="7.39500000000001" as="targetPoint" />
          </mxGeometry>
        </mxCell>
        <mxCell id="Ex0_d51_IfUy_OUosHDZ-23" value="" style="endArrow=none;html=1;rounded=0;" edge="1" parent="Ex0_d51_IfUy_OUosHDZ-21">
          <mxGeometry width="50" height="50" relative="1" as="geometry">
            <mxPoint y="22.39500000000001" as="sourcePoint" />
            <mxPoint x="15" y="22.39500000000001" as="targetPoint" />
          </mxGeometry>
        </mxCell>
        <mxCell id="Ex0_d51_IfUy_OUosHDZ-24" value="" style="shape=cylinder3;whiteSpace=wrap;html=1;boundedLbl=1;backgroundOutline=1;size=4.724137931034591;rotation=90;" vertex="1" parent="Ex0_d51_IfUy_OUosHDZ-21">
          <mxGeometry x="3.75" width="30" height="30" as="geometry" />
        </mxCell>
        <mxCell id="Ex0_d51_IfUy_OUosHDZ-27" value="" style="endArrow=none;html=1;rounded=0;curved=1;" edge="1" parent="1">
          <mxGeometry width="50" height="50" relative="1" as="geometry">
            <mxPoint x="370" y="345" as="sourcePoint" />
            <mxPoint x="370" y="305" as="targetPoint" />
            <Array as="points">
              <mxPoint x="385" y="325" />
            </Array>
          </mxGeometry>
        </mxCell>
        <mxCell id="Ex0_d51_IfUy_OUosHDZ-28" value="" style="endArrow=none;html=1;rounded=0;curved=1;" edge="1" parent="1">
          <mxGeometry width="50" height="50" relative="1" as="geometry">
            <mxPoint x="380" y="350" as="sourcePoint" />
            <mxPoint x="380" y="300" as="targetPoint" />
            <Array as="points">
              <mxPoint x="400" y="325" />
            </Array>
          </mxGeometry>
        </mxCell>
        <mxCell id="Ex0_d51_IfUy_OUosHDZ-29" value="" style="endArrow=none;html=1;rounded=0;curved=1;" edge="1" parent="1">
          <mxGeometry width="50" height="50" relative="1" as="geometry">
            <mxPoint x="390" y="355" as="sourcePoint" />
            <mxPoint x="390" y="295" as="targetPoint" />
            <Array as="points">
              <mxPoint x="410" y="325" />
            </Array>
          </mxGeometry>
        </mxCell>
        <mxCell id="Ex0_d51_IfUy_OUosHDZ-30" value="" style="shape=flexArrow;endArrow=classic;html=1;rounded=0;width=6.666666666666666;endSize=6.499999999999999;startArrow=block;" edge="1" parent="1">
          <mxGeometry width="50" height="50" relative="1" as="geometry">
            <mxPoint x="410" y="240" as="sourcePoint" />
            <mxPoint x="510" y="240" as="targetPoint" />
          </mxGeometry>
        </mxCell>
        <mxCell id="Ex0_d51_IfUy_OUosHDZ-31" value="" style="shape=flexArrow;endArrow=classic;html=1;rounded=0;width=6.666666666666666;endSize=6.499999999999999;" edge="1" parent="1">
          <mxGeometry width="50" height="50" relative="1" as="geometry">
            <mxPoint x="410" y="325" as="sourcePoint" />
            <mxPoint x="510" y="325" as="targetPoint" />
          </mxGeometry>
        </mxCell>
        <mxCell id="Ex0_d51_IfUy_OUosHDZ-34" value="" style="swimlane;startSize=0;" vertex="1" parent="1">
          <mxGeometry x="515" y="160" width="250" height="220" as="geometry" />
        </mxCell>
        <mxCell id="Ex0_d51_IfUy_OUosHDZ-37" value="&lt;font style=&quot;font-size: 18px;&quot;&gt;Beacon&lt;/font&gt;" style="text;html=1;align=center;verticalAlign=middle;whiteSpace=wrap;rounded=0;" vertex="1" parent="Ex0_d51_IfUy_OUosHDZ-34">
          <mxGeometry x="30" width="190" height="35" as="geometry" />
        </mxCell>
        <mxCell id="Ex0_d51_IfUy_OUosHDZ-42" value="" style="endArrow=classic;html=1;rounded=0;exitX=0;exitY=0.5;exitDx=0;exitDy=0;entryX=1;entryY=0.219;entryDx=0;entryDy=0;entryPerimeter=0;startArrow=classic;startFill=1;" edge="1" parent="Ex0_d51_IfUy_OUosHDZ-34">
          <mxGeometry width="50" height="50" relative="1" as="geometry">
            <mxPoint x="165" y="74.83000000000001" as="sourcePoint" />
            <mxPoint x="145" y="74.83000000000001" as="targetPoint" />
          </mxGeometry>
        </mxCell>
        <mxCell id="Ex0_d51_IfUy_OUosHDZ-41" value="" style="endArrow=classic;html=1;rounded=0;exitX=1.015;exitY=0.781;exitDx=0;exitDy=0;exitPerimeter=0;" edge="1" parent="Ex0_d51_IfUy_OUosHDZ-34">
          <mxGeometry width="50" height="50" relative="1" as="geometry">
            <mxPoint x="146" y="164.82999999999998" as="sourcePoint" />
            <mxPoint x="165" y="164.82999999999998" as="targetPoint" />
          </mxGeometry>
        </mxCell>
        <mxCell id="Ex0_d51_IfUy_OUosHDZ-40" value="" style="endArrow=classic;html=1;rounded=0;exitX=0;exitY=0.5;exitDx=0;exitDy=0;entryX=1;entryY=0.219;entryDx=0;entryDy=0;entryPerimeter=0;startArrow=classic;startFill=1;" edge="1" parent="1" source="Ex0_d51_IfUy_OUosHDZ-1" target="Ex0_d51_IfUy_OUosHDZ-4">
          <mxGeometry width="50" height="50" relative="1" as="geometry">
            <mxPoint x="246" y="330" as="sourcePoint" />
            <mxPoint x="265" y="330" as="targetPoint" />
          </mxGeometry>
        </mxCell>
        <mxCell id="Ex0_d51_IfUy_OUosHDZ-136" value="" style="group" vertex="1" connectable="0" parent="1">
          <mxGeometry x="185" y="260" width="40" height="40" as="geometry" />
        </mxCell>
        <mxCell id="Ex0_d51_IfUy_OUosHDZ-51" value="" style="endArrow=none;html=1;rounded=0;" edge="1" parent="Ex0_d51_IfUy_OUosHDZ-136">
          <mxGeometry width="50" height="50" relative="1" as="geometry">
            <mxPoint x="3.076923076923077" y="36.92307692307693" as="sourcePoint" />
            <mxPoint x="36.92307692307693" y="36.92307692307693" as="targetPoint" />
          </mxGeometry>
        </mxCell>
        <mxCell id="Ex0_d51_IfUy_OUosHDZ-52" value="" style="endArrow=none;html=1;rounded=0;" edge="1" parent="Ex0_d51_IfUy_OUosHDZ-136">
          <mxGeometry width="50" height="50" relative="1" as="geometry">
            <mxPoint x="3.076923076923077" y="3.076923076923077" as="sourcePoint" />
            <mxPoint x="36.92307692307693" y="3.076923076923077" as="targetPoint" />
          </mxGeometry>
        </mxCell>
        <mxCell id="Ex0_d51_IfUy_OUosHDZ-53" value="" style="endArrow=none;html=1;rounded=0;" edge="1" parent="Ex0_d51_IfUy_OUosHDZ-136">
          <mxGeometry width="50" height="50" relative="1" as="geometry">
            <mxPoint x="36.92307692307693" y="3.076923076923077" as="sourcePoint" />
            <mxPoint x="36.92307692307693" y="36.92307692307693" as="targetPoint" />
          </mxGeometry>
        </mxCell>
        <mxCell id="Ex0_d51_IfUy_OUosHDZ-54" value="" style="endArrow=none;html=1;rounded=0;" edge="1" parent="Ex0_d51_IfUy_OUosHDZ-136">
          <mxGeometry width="50" height="50" relative="1" as="geometry">
            <mxPoint x="3.076923076923077" y="3.076923076923077" as="sourcePoint" />
            <mxPoint x="3.076923076923077" y="36.92307692307693" as="targetPoint" />
          </mxGeometry>
        </mxCell>
        <mxCell id="Ex0_d51_IfUy_OUosHDZ-100" value="" style="group" vertex="1" connectable="0" parent="Ex0_d51_IfUy_OUosHDZ-136">
          <mxGeometry x="6.153846153846154" width="33.7476923076923" height="3.076923076923077" as="geometry" />
        </mxCell>
        <mxCell id="Ex0_d51_IfUy_OUosHDZ-88" value="" style="group" vertex="1" connectable="0" parent="Ex0_d51_IfUy_OUosHDZ-100">
          <mxGeometry width="15.28615384615385" height="3.076923076923077" as="geometry" />
        </mxCell>
        <mxCell id="Ex0_d51_IfUy_OUosHDZ-82" value="" style="endArrow=none;html=1;rounded=0;" edge="1" parent="Ex0_d51_IfUy_OUosHDZ-88">
          <mxGeometry width="50" height="50" relative="1" as="geometry">
            <mxPoint as="sourcePoint" />
            <mxPoint y="3.076923076923077" as="targetPoint" />
          </mxGeometry>
        </mxCell>
        <mxCell id="Ex0_d51_IfUy_OUosHDZ-83" value="" style="endArrow=none;html=1;rounded=0;" edge="1" parent="Ex0_d51_IfUy_OUosHDZ-88">
          <mxGeometry width="50" height="50" relative="1" as="geometry">
            <mxPoint x="3.076923076923081" as="sourcePoint" />
            <mxPoint x="3.076923076923081" y="3.076923076923077" as="targetPoint" />
          </mxGeometry>
        </mxCell>
        <mxCell id="Ex0_d51_IfUy_OUosHDZ-84" value="" style="endArrow=none;html=1;rounded=0;" edge="1" parent="Ex0_d51_IfUy_OUosHDZ-88">
          <mxGeometry width="50" height="50" relative="1" as="geometry">
            <mxPoint x="6.153846153846162" as="sourcePoint" />
            <mxPoint x="6.153846153846162" y="3.076923076923077" as="targetPoint" />
          </mxGeometry>
        </mxCell>
        <mxCell id="Ex0_d51_IfUy_OUosHDZ-85" value="" style="endArrow=none;html=1;rounded=0;" edge="1" parent="Ex0_d51_IfUy_OUosHDZ-88">
          <mxGeometry width="50" height="50" relative="1" as="geometry">
            <mxPoint x="9.230769230769242" as="sourcePoint" />
            <mxPoint x="9.230769230769242" y="3.076923076923077" as="targetPoint" />
          </mxGeometry>
        </mxCell>
        <mxCell id="Ex0_d51_IfUy_OUosHDZ-86" value="" style="endArrow=none;html=1;rounded=0;" edge="1" parent="Ex0_d51_IfUy_OUosHDZ-88">
          <mxGeometry width="50" height="50" relative="1" as="geometry">
            <mxPoint x="12.307692307692324" as="sourcePoint" />
            <mxPoint x="12.307692307692324" y="3.076923076923077" as="targetPoint" />
          </mxGeometry>
        </mxCell>
        <mxCell id="Ex0_d51_IfUy_OUosHDZ-87" value="" style="endArrow=none;html=1;rounded=0;" edge="1" parent="Ex0_d51_IfUy_OUosHDZ-88">
          <mxGeometry width="50" height="50" relative="1" as="geometry">
            <mxPoint x="15.286153846153852" as="sourcePoint" />
            <mxPoint x="15.286153846153852" y="3.076923076923077" as="targetPoint" />
          </mxGeometry>
        </mxCell>
        <mxCell id="Ex0_d51_IfUy_OUosHDZ-91" value="" style="group" vertex="1" connectable="0" parent="Ex0_d51_IfUy_OUosHDZ-100">
          <mxGeometry x="18.461538461538467" width="15.28615384615385" height="3.076923076923077" as="geometry" />
        </mxCell>
        <mxCell id="Ex0_d51_IfUy_OUosHDZ-92" value="" style="endArrow=none;html=1;rounded=0;" edge="1" parent="Ex0_d51_IfUy_OUosHDZ-91">
          <mxGeometry width="50" height="50" relative="1" as="geometry">
            <mxPoint as="sourcePoint" />
            <mxPoint y="3.076923076923077" as="targetPoint" />
          </mxGeometry>
        </mxCell>
        <mxCell id="Ex0_d51_IfUy_OUosHDZ-93" value="" style="endArrow=none;html=1;rounded=0;" edge="1" parent="Ex0_d51_IfUy_OUosHDZ-91">
          <mxGeometry width="50" height="50" relative="1" as="geometry">
            <mxPoint x="3.076923076923081" as="sourcePoint" />
            <mxPoint x="3.076923076923081" y="3.076923076923077" as="targetPoint" />
          </mxGeometry>
        </mxCell>
        <mxCell id="Ex0_d51_IfUy_OUosHDZ-94" value="" style="endArrow=none;html=1;rounded=0;" edge="1" parent="Ex0_d51_IfUy_OUosHDZ-91">
          <mxGeometry width="50" height="50" relative="1" as="geometry">
            <mxPoint x="6.153846153846162" as="sourcePoint" />
            <mxPoint x="6.153846153846162" y="3.076923076923077" as="targetPoint" />
          </mxGeometry>
        </mxCell>
        <mxCell id="Ex0_d51_IfUy_OUosHDZ-95" value="" style="endArrow=none;html=1;rounded=0;" edge="1" parent="Ex0_d51_IfUy_OUosHDZ-91">
          <mxGeometry width="50" height="50" relative="1" as="geometry">
            <mxPoint x="9.230769230769242" as="sourcePoint" />
            <mxPoint x="9.230769230769242" y="3.076923076923077" as="targetPoint" />
          </mxGeometry>
        </mxCell>
        <mxCell id="Ex0_d51_IfUy_OUosHDZ-101" value="" style="group" vertex="1" connectable="0" parent="Ex0_d51_IfUy_OUosHDZ-136">
          <mxGeometry x="6.153846153846154" y="36.92307692307693" width="33.7476923076923" height="3.076923076923077" as="geometry" />
        </mxCell>
        <mxCell id="Ex0_d51_IfUy_OUosHDZ-102" value="" style="group" vertex="1" connectable="0" parent="Ex0_d51_IfUy_OUosHDZ-101">
          <mxGeometry width="15.28615384615385" height="3.076923076923077" as="geometry" />
        </mxCell>
        <mxCell id="Ex0_d51_IfUy_OUosHDZ-103" value="" style="endArrow=none;html=1;rounded=0;" edge="1" parent="Ex0_d51_IfUy_OUosHDZ-102">
          <mxGeometry width="50" height="50" relative="1" as="geometry">
            <mxPoint as="sourcePoint" />
            <mxPoint y="3.076923076923077" as="targetPoint" />
          </mxGeometry>
        </mxCell>
        <mxCell id="Ex0_d51_IfUy_OUosHDZ-104" value="" style="endArrow=none;html=1;rounded=0;" edge="1" parent="Ex0_d51_IfUy_OUosHDZ-102">
          <mxGeometry width="50" height="50" relative="1" as="geometry">
            <mxPoint x="3.076923076923081" as="sourcePoint" />
            <mxPoint x="3.076923076923081" y="3.076923076923077" as="targetPoint" />
          </mxGeometry>
        </mxCell>
        <mxCell id="Ex0_d51_IfUy_OUosHDZ-105" value="" style="endArrow=none;html=1;rounded=0;" edge="1" parent="Ex0_d51_IfUy_OUosHDZ-102">
          <mxGeometry width="50" height="50" relative="1" as="geometry">
            <mxPoint x="6.153846153846162" as="sourcePoint" />
            <mxPoint x="6.153846153846162" y="3.076923076923077" as="targetPoint" />
          </mxGeometry>
        </mxCell>
        <mxCell id="Ex0_d51_IfUy_OUosHDZ-106" value="" style="endArrow=none;html=1;rounded=0;" edge="1" parent="Ex0_d51_IfUy_OUosHDZ-102">
          <mxGeometry width="50" height="50" relative="1" as="geometry">
            <mxPoint x="9.230769230769242" as="sourcePoint" />
            <mxPoint x="9.230769230769242" y="3.076923076923077" as="targetPoint" />
          </mxGeometry>
        </mxCell>
        <mxCell id="Ex0_d51_IfUy_OUosHDZ-107" value="" style="endArrow=none;html=1;rounded=0;" edge="1" parent="Ex0_d51_IfUy_OUosHDZ-102">
          <mxGeometry width="50" height="50" relative="1" as="geometry">
            <mxPoint x="12.307692307692324" as="sourcePoint" />
            <mxPoint x="12.307692307692324" y="3.076923076923077" as="targetPoint" />
          </mxGeometry>
        </mxCell>
        <mxCell id="Ex0_d51_IfUy_OUosHDZ-108" value="" style="endArrow=none;html=1;rounded=0;" edge="1" parent="Ex0_d51_IfUy_OUosHDZ-102">
          <mxGeometry width="50" height="50" relative="1" as="geometry">
            <mxPoint x="15.286153846153852" as="sourcePoint" />
            <mxPoint x="15.286153846153852" y="3.076923076923077" as="targetPoint" />
          </mxGeometry>
        </mxCell>
        <mxCell id="Ex0_d51_IfUy_OUosHDZ-109" value="" style="group" vertex="1" connectable="0" parent="Ex0_d51_IfUy_OUosHDZ-101">
          <mxGeometry x="18.461538461538467" width="15.28615384615385" height="3.076923076923077" as="geometry" />
        </mxCell>
        <mxCell id="Ex0_d51_IfUy_OUosHDZ-110" value="" style="endArrow=none;html=1;rounded=0;" edge="1" parent="Ex0_d51_IfUy_OUosHDZ-109">
          <mxGeometry width="50" height="50" relative="1" as="geometry">
            <mxPoint as="sourcePoint" />
            <mxPoint y="3.076923076923077" as="targetPoint" />
          </mxGeometry>
        </mxCell>
        <mxCell id="Ex0_d51_IfUy_OUosHDZ-111" value="" style="endArrow=none;html=1;rounded=0;" edge="1" parent="Ex0_d51_IfUy_OUosHDZ-109">
          <mxGeometry width="50" height="50" relative="1" as="geometry">
            <mxPoint x="3.076923076923081" as="sourcePoint" />
            <mxPoint x="3.076923076923081" y="3.076923076923077" as="targetPoint" />
          </mxGeometry>
        </mxCell>
        <mxCell id="Ex0_d51_IfUy_OUosHDZ-112" value="" style="endArrow=none;html=1;rounded=0;" edge="1" parent="Ex0_d51_IfUy_OUosHDZ-109">
          <mxGeometry width="50" height="50" relative="1" as="geometry">
            <mxPoint x="6.153846153846162" as="sourcePoint" />
            <mxPoint x="6.153846153846162" y="3.076923076923077" as="targetPoint" />
          </mxGeometry>
        </mxCell>
        <mxCell id="Ex0_d51_IfUy_OUosHDZ-113" value="" style="endArrow=none;html=1;rounded=0;" edge="1" parent="Ex0_d51_IfUy_OUosHDZ-109">
          <mxGeometry width="50" height="50" relative="1" as="geometry">
            <mxPoint x="9.230769230769242" as="sourcePoint" />
            <mxPoint x="9.230769230769242" y="3.076923076923077" as="targetPoint" />
          </mxGeometry>
        </mxCell>
        <mxCell id="Ex0_d51_IfUy_OUosHDZ-122" value="" style="group" vertex="1" connectable="0" parent="Ex0_d51_IfUy_OUosHDZ-136">
          <mxGeometry y="6.153846153846154" width="3.076923076923077" height="33.84615384615385" as="geometry" />
        </mxCell>
        <mxCell id="Ex0_d51_IfUy_OUosHDZ-62" value="" style="group" vertex="1" connectable="0" parent="Ex0_d51_IfUy_OUosHDZ-122">
          <mxGeometry width="3.076923076923077" height="15.384615384615385" as="geometry" />
        </mxCell>
        <mxCell id="Ex0_d51_IfUy_OUosHDZ-63" value="" style="endArrow=none;html=1;rounded=0;" edge="1" parent="Ex0_d51_IfUy_OUosHDZ-62">
          <mxGeometry width="50" height="50" relative="1" as="geometry">
            <mxPoint as="sourcePoint" />
            <mxPoint x="3.076923076923077" as="targetPoint" />
          </mxGeometry>
        </mxCell>
        <mxCell id="Ex0_d51_IfUy_OUosHDZ-64" value="" style="endArrow=none;html=1;rounded=0;" edge="1" parent="Ex0_d51_IfUy_OUosHDZ-62">
          <mxGeometry width="50" height="50" relative="1" as="geometry">
            <mxPoint y="3.076923076923077" as="sourcePoint" />
            <mxPoint x="3.076923076923077" y="3.076923076923077" as="targetPoint" />
          </mxGeometry>
        </mxCell>
        <mxCell id="Ex0_d51_IfUy_OUosHDZ-65" value="" style="endArrow=none;html=1;rounded=0;" edge="1" parent="Ex0_d51_IfUy_OUosHDZ-62">
          <mxGeometry width="50" height="50" relative="1" as="geometry">
            <mxPoint y="6.153846153846154" as="sourcePoint" />
            <mxPoint x="3.076923076923077" y="6.153846153846154" as="targetPoint" />
          </mxGeometry>
        </mxCell>
        <mxCell id="Ex0_d51_IfUy_OUosHDZ-66" value="" style="endArrow=none;html=1;rounded=0;" edge="1" parent="Ex0_d51_IfUy_OUosHDZ-62">
          <mxGeometry width="50" height="50" relative="1" as="geometry">
            <mxPoint y="9.230769230769232" as="sourcePoint" />
            <mxPoint x="3.076923076923077" y="9.230769230769232" as="targetPoint" />
          </mxGeometry>
        </mxCell>
        <mxCell id="Ex0_d51_IfUy_OUosHDZ-67" value="" style="endArrow=none;html=1;rounded=0;" edge="1" parent="Ex0_d51_IfUy_OUosHDZ-62">
          <mxGeometry width="50" height="50" relative="1" as="geometry">
            <mxPoint y="12.307692307692308" as="sourcePoint" />
            <mxPoint x="3.076923076923077" y="12.307692307692308" as="targetPoint" />
          </mxGeometry>
        </mxCell>
        <mxCell id="Ex0_d51_IfUy_OUosHDZ-68" value="" style="endArrow=none;html=1;rounded=0;" edge="1" parent="Ex0_d51_IfUy_OUosHDZ-62">
          <mxGeometry width="50" height="50" relative="1" as="geometry">
            <mxPoint y="15.384615384615385" as="sourcePoint" />
            <mxPoint x="3.076923076923077" y="15.384615384615385" as="targetPoint" />
          </mxGeometry>
        </mxCell>
        <mxCell id="Ex0_d51_IfUy_OUosHDZ-114" value="" style="group" vertex="1" connectable="0" parent="Ex0_d51_IfUy_OUosHDZ-122">
          <mxGeometry y="18.461538461538463" width="3.076923076923077" height="15.384615384615385" as="geometry" />
        </mxCell>
        <mxCell id="Ex0_d51_IfUy_OUosHDZ-115" value="" style="endArrow=none;html=1;rounded=0;" edge="1" parent="Ex0_d51_IfUy_OUosHDZ-114">
          <mxGeometry width="50" height="50" relative="1" as="geometry">
            <mxPoint as="sourcePoint" />
            <mxPoint x="3.076923076923077" as="targetPoint" />
          </mxGeometry>
        </mxCell>
        <mxCell id="Ex0_d51_IfUy_OUosHDZ-116" value="" style="endArrow=none;html=1;rounded=0;" edge="1" parent="Ex0_d51_IfUy_OUosHDZ-114">
          <mxGeometry width="50" height="50" relative="1" as="geometry">
            <mxPoint y="3.076923076923077" as="sourcePoint" />
            <mxPoint x="3.076923076923077" y="3.076923076923077" as="targetPoint" />
          </mxGeometry>
        </mxCell>
        <mxCell id="Ex0_d51_IfUy_OUosHDZ-117" value="" style="endArrow=none;html=1;rounded=0;" edge="1" parent="Ex0_d51_IfUy_OUosHDZ-114">
          <mxGeometry width="50" height="50" relative="1" as="geometry">
            <mxPoint y="6.153846153846154" as="sourcePoint" />
            <mxPoint x="3.076923076923077" y="6.153846153846154" as="targetPoint" />
          </mxGeometry>
        </mxCell>
        <mxCell id="Ex0_d51_IfUy_OUosHDZ-118" value="" style="endArrow=none;html=1;rounded=0;" edge="1" parent="Ex0_d51_IfUy_OUosHDZ-114">
          <mxGeometry width="50" height="50" relative="1" as="geometry">
            <mxPoint y="9.230769230769232" as="sourcePoint" />
            <mxPoint x="3.076923076923077" y="9.230769230769232" as="targetPoint" />
          </mxGeometry>
        </mxCell>
        <mxCell id="Ex0_d51_IfUy_OUosHDZ-123" value="" style="group" vertex="1" connectable="0" parent="Ex0_d51_IfUy_OUosHDZ-136">
          <mxGeometry x="36.92307692307693" y="6.153846153846154" width="3.076923076923077" height="33.84615384615385" as="geometry" />
        </mxCell>
        <mxCell id="Ex0_d51_IfUy_OUosHDZ-124" value="" style="group" vertex="1" connectable="0" parent="Ex0_d51_IfUy_OUosHDZ-123">
          <mxGeometry width="3.076923076923077" height="15.384615384615385" as="geometry" />
        </mxCell>
        <mxCell id="Ex0_d51_IfUy_OUosHDZ-125" value="" style="endArrow=none;html=1;rounded=0;" edge="1" parent="Ex0_d51_IfUy_OUosHDZ-124">
          <mxGeometry width="50" height="50" relative="1" as="geometry">
            <mxPoint as="sourcePoint" />
            <mxPoint x="3.076923076923077" as="targetPoint" />
          </mxGeometry>
        </mxCell>
        <mxCell id="Ex0_d51_IfUy_OUosHDZ-126" value="" style="endArrow=none;html=1;rounded=0;" edge="1" parent="Ex0_d51_IfUy_OUosHDZ-124">
          <mxGeometry width="50" height="50" relative="1" as="geometry">
            <mxPoint y="3.076923076923077" as="sourcePoint" />
            <mxPoint x="3.076923076923077" y="3.076923076923077" as="targetPoint" />
          </mxGeometry>
        </mxCell>
        <mxCell id="Ex0_d51_IfUy_OUosHDZ-127" value="" style="endArrow=none;html=1;rounded=0;" edge="1" parent="Ex0_d51_IfUy_OUosHDZ-124">
          <mxGeometry width="50" height="50" relative="1" as="geometry">
            <mxPoint y="6.153846153846154" as="sourcePoint" />
            <mxPoint x="3.076923076923077" y="6.153846153846154" as="targetPoint" />
          </mxGeometry>
        </mxCell>
        <mxCell id="Ex0_d51_IfUy_OUosHDZ-128" value="" style="endArrow=none;html=1;rounded=0;" edge="1" parent="Ex0_d51_IfUy_OUosHDZ-124">
          <mxGeometry width="50" height="50" relative="1" as="geometry">
            <mxPoint y="9.230769230769232" as="sourcePoint" />
            <mxPoint x="3.076923076923077" y="9.230769230769232" as="targetPoint" />
          </mxGeometry>
        </mxCell>
        <mxCell id="Ex0_d51_IfUy_OUosHDZ-129" value="" style="endArrow=none;html=1;rounded=0;" edge="1" parent="Ex0_d51_IfUy_OUosHDZ-124">
          <mxGeometry width="50" height="50" relative="1" as="geometry">
            <mxPoint y="12.307692307692308" as="sourcePoint" />
            <mxPoint x="3.076923076923077" y="12.307692307692308" as="targetPoint" />
          </mxGeometry>
        </mxCell>
        <mxCell id="Ex0_d51_IfUy_OUosHDZ-130" value="" style="endArrow=none;html=1;rounded=0;" edge="1" parent="Ex0_d51_IfUy_OUosHDZ-124">
          <mxGeometry width="50" height="50" relative="1" as="geometry">
            <mxPoint y="15.384615384615385" as="sourcePoint" />
            <mxPoint x="3.076923076923077" y="15.384615384615385" as="targetPoint" />
          </mxGeometry>
        </mxCell>
        <mxCell id="Ex0_d51_IfUy_OUosHDZ-131" value="" style="group" vertex="1" connectable="0" parent="Ex0_d51_IfUy_OUosHDZ-123">
          <mxGeometry y="18.461538461538463" width="3.076923076923077" height="15.384615384615385" as="geometry" />
        </mxCell>
        <mxCell id="Ex0_d51_IfUy_OUosHDZ-132" value="" style="endArrow=none;html=1;rounded=0;" edge="1" parent="Ex0_d51_IfUy_OUosHDZ-131">
          <mxGeometry width="50" height="50" relative="1" as="geometry">
            <mxPoint as="sourcePoint" />
            <mxPoint x="3.076923076923077" as="targetPoint" />
          </mxGeometry>
        </mxCell>
        <mxCell id="Ex0_d51_IfUy_OUosHDZ-133" value="" style="endArrow=none;html=1;rounded=0;" edge="1" parent="Ex0_d51_IfUy_OUosHDZ-131">
          <mxGeometry width="50" height="50" relative="1" as="geometry">
            <mxPoint y="3.076923076923077" as="sourcePoint" />
            <mxPoint x="3.076923076923077" y="3.076923076923077" as="targetPoint" />
          </mxGeometry>
        </mxCell>
        <mxCell id="Ex0_d51_IfUy_OUosHDZ-134" value="" style="endArrow=none;html=1;rounded=0;" edge="1" parent="Ex0_d51_IfUy_OUosHDZ-131">
          <mxGeometry width="50" height="50" relative="1" as="geometry">
            <mxPoint y="6.153846153846154" as="sourcePoint" />
            <mxPoint x="3.076923076923077" y="6.153846153846154" as="targetPoint" />
          </mxGeometry>
        </mxCell>
        <mxCell id="Ex0_d51_IfUy_OUosHDZ-135" value="" style="endArrow=none;html=1;rounded=0;" edge="1" parent="Ex0_d51_IfUy_OUosHDZ-131">
          <mxGeometry width="50" height="50" relative="1" as="geometry">
            <mxPoint y="9.230769230769232" as="sourcePoint" />
            <mxPoint x="3.076923076923077" y="9.230769230769232" as="targetPoint" />
          </mxGeometry>
        </mxCell>
        <mxCell id="Ex0_d51_IfUy_OUosHDZ-137" value="" style="group" vertex="1" connectable="0" parent="1">
          <mxGeometry x="695" y="260" width="40" height="40" as="geometry" />
        </mxCell>
        <mxCell id="Ex0_d51_IfUy_OUosHDZ-138" value="" style="endArrow=none;html=1;rounded=0;" edge="1" parent="Ex0_d51_IfUy_OUosHDZ-137">
          <mxGeometry width="50" height="50" relative="1" as="geometry">
            <mxPoint x="3.076923076923077" y="36.92307692307693" as="sourcePoint" />
            <mxPoint x="36.92307692307693" y="36.92307692307693" as="targetPoint" />
          </mxGeometry>
        </mxCell>
        <mxCell id="Ex0_d51_IfUy_OUosHDZ-139" value="" style="endArrow=none;html=1;rounded=0;" edge="1" parent="Ex0_d51_IfUy_OUosHDZ-137">
          <mxGeometry width="50" height="50" relative="1" as="geometry">
            <mxPoint x="3.076923076923077" y="3.076923076923077" as="sourcePoint" />
            <mxPoint x="36.92307692307693" y="3.076923076923077" as="targetPoint" />
          </mxGeometry>
        </mxCell>
        <mxCell id="Ex0_d51_IfUy_OUosHDZ-140" value="" style="endArrow=none;html=1;rounded=0;" edge="1" parent="Ex0_d51_IfUy_OUosHDZ-137">
          <mxGeometry width="50" height="50" relative="1" as="geometry">
            <mxPoint x="36.92307692307693" y="3.076923076923077" as="sourcePoint" />
            <mxPoint x="36.92307692307693" y="36.92307692307693" as="targetPoint" />
          </mxGeometry>
        </mxCell>
        <mxCell id="Ex0_d51_IfUy_OUosHDZ-141" value="" style="endArrow=none;html=1;rounded=0;" edge="1" parent="Ex0_d51_IfUy_OUosHDZ-137">
          <mxGeometry width="50" height="50" relative="1" as="geometry">
            <mxPoint x="3.076923076923077" y="3.076923076923077" as="sourcePoint" />
            <mxPoint x="3.076923076923077" y="36.92307692307693" as="targetPoint" />
          </mxGeometry>
        </mxCell>
        <mxCell id="Ex0_d51_IfUy_OUosHDZ-142" value="" style="group" vertex="1" connectable="0" parent="Ex0_d51_IfUy_OUosHDZ-137">
          <mxGeometry x="6.153846153846154" width="33.7476923076923" height="3.076923076923077" as="geometry" />
        </mxCell>
        <mxCell id="Ex0_d51_IfUy_OUosHDZ-143" value="" style="group" vertex="1" connectable="0" parent="Ex0_d51_IfUy_OUosHDZ-142">
          <mxGeometry width="15.28615384615385" height="3.076923076923077" as="geometry" />
        </mxCell>
        <mxCell id="Ex0_d51_IfUy_OUosHDZ-144" value="" style="endArrow=none;html=1;rounded=0;" edge="1" parent="Ex0_d51_IfUy_OUosHDZ-143">
          <mxGeometry width="50" height="50" relative="1" as="geometry">
            <mxPoint as="sourcePoint" />
            <mxPoint y="3.076923076923077" as="targetPoint" />
          </mxGeometry>
        </mxCell>
        <mxCell id="Ex0_d51_IfUy_OUosHDZ-145" value="" style="endArrow=none;html=1;rounded=0;" edge="1" parent="Ex0_d51_IfUy_OUosHDZ-143">
          <mxGeometry width="50" height="50" relative="1" as="geometry">
            <mxPoint x="3.076923076923081" as="sourcePoint" />
            <mxPoint x="3.076923076923081" y="3.076923076923077" as="targetPoint" />
          </mxGeometry>
        </mxCell>
        <mxCell id="Ex0_d51_IfUy_OUosHDZ-146" value="" style="endArrow=none;html=1;rounded=0;" edge="1" parent="Ex0_d51_IfUy_OUosHDZ-143">
          <mxGeometry width="50" height="50" relative="1" as="geometry">
            <mxPoint x="6.153846153846162" as="sourcePoint" />
            <mxPoint x="6.153846153846162" y="3.076923076923077" as="targetPoint" />
          </mxGeometry>
        </mxCell>
        <mxCell id="Ex0_d51_IfUy_OUosHDZ-147" value="" style="endArrow=none;html=1;rounded=0;" edge="1" parent="Ex0_d51_IfUy_OUosHDZ-143">
          <mxGeometry width="50" height="50" relative="1" as="geometry">
            <mxPoint x="9.230769230769242" as="sourcePoint" />
            <mxPoint x="9.230769230769242" y="3.076923076923077" as="targetPoint" />
          </mxGeometry>
        </mxCell>
        <mxCell id="Ex0_d51_IfUy_OUosHDZ-148" value="" style="endArrow=none;html=1;rounded=0;" edge="1" parent="Ex0_d51_IfUy_OUosHDZ-143">
          <mxGeometry width="50" height="50" relative="1" as="geometry">
            <mxPoint x="12.307692307692324" as="sourcePoint" />
            <mxPoint x="12.307692307692324" y="3.076923076923077" as="targetPoint" />
          </mxGeometry>
        </mxCell>
        <mxCell id="Ex0_d51_IfUy_OUosHDZ-149" value="" style="endArrow=none;html=1;rounded=0;" edge="1" parent="Ex0_d51_IfUy_OUosHDZ-143">
          <mxGeometry width="50" height="50" relative="1" as="geometry">
            <mxPoint x="15.286153846153852" as="sourcePoint" />
            <mxPoint x="15.286153846153852" y="3.076923076923077" as="targetPoint" />
          </mxGeometry>
        </mxCell>
        <mxCell id="Ex0_d51_IfUy_OUosHDZ-150" value="" style="group" vertex="1" connectable="0" parent="Ex0_d51_IfUy_OUosHDZ-142">
          <mxGeometry x="18.461538461538467" width="15.28615384615385" height="3.076923076923077" as="geometry" />
        </mxCell>
        <mxCell id="Ex0_d51_IfUy_OUosHDZ-151" value="" style="endArrow=none;html=1;rounded=0;" edge="1" parent="Ex0_d51_IfUy_OUosHDZ-150">
          <mxGeometry width="50" height="50" relative="1" as="geometry">
            <mxPoint as="sourcePoint" />
            <mxPoint y="3.076923076923077" as="targetPoint" />
          </mxGeometry>
        </mxCell>
        <mxCell id="Ex0_d51_IfUy_OUosHDZ-152" value="" style="endArrow=none;html=1;rounded=0;" edge="1" parent="Ex0_d51_IfUy_OUosHDZ-150">
          <mxGeometry width="50" height="50" relative="1" as="geometry">
            <mxPoint x="3.076923076923081" as="sourcePoint" />
            <mxPoint x="3.076923076923081" y="3.076923076923077" as="targetPoint" />
          </mxGeometry>
        </mxCell>
        <mxCell id="Ex0_d51_IfUy_OUosHDZ-153" value="" style="endArrow=none;html=1;rounded=0;" edge="1" parent="Ex0_d51_IfUy_OUosHDZ-150">
          <mxGeometry width="50" height="50" relative="1" as="geometry">
            <mxPoint x="6.153846153846162" as="sourcePoint" />
            <mxPoint x="6.153846153846162" y="3.076923076923077" as="targetPoint" />
          </mxGeometry>
        </mxCell>
        <mxCell id="Ex0_d51_IfUy_OUosHDZ-154" value="" style="endArrow=none;html=1;rounded=0;" edge="1" parent="Ex0_d51_IfUy_OUosHDZ-150">
          <mxGeometry width="50" height="50" relative="1" as="geometry">
            <mxPoint x="9.230769230769242" as="sourcePoint" />
            <mxPoint x="9.230769230769242" y="3.076923076923077" as="targetPoint" />
          </mxGeometry>
        </mxCell>
        <mxCell id="Ex0_d51_IfUy_OUosHDZ-155" value="" style="group" vertex="1" connectable="0" parent="Ex0_d51_IfUy_OUosHDZ-137">
          <mxGeometry x="6.153846153846154" y="36.92307692307693" width="33.7476923076923" height="3.076923076923077" as="geometry" />
        </mxCell>
        <mxCell id="Ex0_d51_IfUy_OUosHDZ-156" value="" style="group" vertex="1" connectable="0" parent="Ex0_d51_IfUy_OUosHDZ-155">
          <mxGeometry width="15.28615384615385" height="3.076923076923077" as="geometry" />
        </mxCell>
        <mxCell id="Ex0_d51_IfUy_OUosHDZ-157" value="" style="endArrow=none;html=1;rounded=0;" edge="1" parent="Ex0_d51_IfUy_OUosHDZ-156">
          <mxGeometry width="50" height="50" relative="1" as="geometry">
            <mxPoint as="sourcePoint" />
            <mxPoint y="3.076923076923077" as="targetPoint" />
          </mxGeometry>
        </mxCell>
        <mxCell id="Ex0_d51_IfUy_OUosHDZ-158" value="" style="endArrow=none;html=1;rounded=0;" edge="1" parent="Ex0_d51_IfUy_OUosHDZ-156">
          <mxGeometry width="50" height="50" relative="1" as="geometry">
            <mxPoint x="3.076923076923081" as="sourcePoint" />
            <mxPoint x="3.076923076923081" y="3.076923076923077" as="targetPoint" />
          </mxGeometry>
        </mxCell>
        <mxCell id="Ex0_d51_IfUy_OUosHDZ-159" value="" style="endArrow=none;html=1;rounded=0;" edge="1" parent="Ex0_d51_IfUy_OUosHDZ-156">
          <mxGeometry width="50" height="50" relative="1" as="geometry">
            <mxPoint x="6.153846153846162" as="sourcePoint" />
            <mxPoint x="6.153846153846162" y="3.076923076923077" as="targetPoint" />
          </mxGeometry>
        </mxCell>
        <mxCell id="Ex0_d51_IfUy_OUosHDZ-160" value="" style="endArrow=none;html=1;rounded=0;" edge="1" parent="Ex0_d51_IfUy_OUosHDZ-156">
          <mxGeometry width="50" height="50" relative="1" as="geometry">
            <mxPoint x="9.230769230769242" as="sourcePoint" />
            <mxPoint x="9.230769230769242" y="3.076923076923077" as="targetPoint" />
          </mxGeometry>
        </mxCell>
        <mxCell id="Ex0_d51_IfUy_OUosHDZ-161" value="" style="endArrow=none;html=1;rounded=0;" edge="1" parent="Ex0_d51_IfUy_OUosHDZ-156">
          <mxGeometry width="50" height="50" relative="1" as="geometry">
            <mxPoint x="12.307692307692324" as="sourcePoint" />
            <mxPoint x="12.307692307692324" y="3.076923076923077" as="targetPoint" />
          </mxGeometry>
        </mxCell>
        <mxCell id="Ex0_d51_IfUy_OUosHDZ-162" value="" style="endArrow=none;html=1;rounded=0;" edge="1" parent="Ex0_d51_IfUy_OUosHDZ-156">
          <mxGeometry width="50" height="50" relative="1" as="geometry">
            <mxPoint x="15.286153846153852" as="sourcePoint" />
            <mxPoint x="15.286153846153852" y="3.076923076923077" as="targetPoint" />
          </mxGeometry>
        </mxCell>
        <mxCell id="Ex0_d51_IfUy_OUosHDZ-163" value="" style="group" vertex="1" connectable="0" parent="Ex0_d51_IfUy_OUosHDZ-155">
          <mxGeometry x="18.461538461538467" width="15.28615384615385" height="3.076923076923077" as="geometry" />
        </mxCell>
        <mxCell id="Ex0_d51_IfUy_OUosHDZ-164" value="" style="endArrow=none;html=1;rounded=0;" edge="1" parent="Ex0_d51_IfUy_OUosHDZ-163">
          <mxGeometry width="50" height="50" relative="1" as="geometry">
            <mxPoint as="sourcePoint" />
            <mxPoint y="3.076923076923077" as="targetPoint" />
          </mxGeometry>
        </mxCell>
        <mxCell id="Ex0_d51_IfUy_OUosHDZ-165" value="" style="endArrow=none;html=1;rounded=0;" edge="1" parent="Ex0_d51_IfUy_OUosHDZ-163">
          <mxGeometry width="50" height="50" relative="1" as="geometry">
            <mxPoint x="3.076923076923081" as="sourcePoint" />
            <mxPoint x="3.076923076923081" y="3.076923076923077" as="targetPoint" />
          </mxGeometry>
        </mxCell>
        <mxCell id="Ex0_d51_IfUy_OUosHDZ-166" value="" style="endArrow=none;html=1;rounded=0;" edge="1" parent="Ex0_d51_IfUy_OUosHDZ-163">
          <mxGeometry width="50" height="50" relative="1" as="geometry">
            <mxPoint x="6.153846153846162" as="sourcePoint" />
            <mxPoint x="6.153846153846162" y="3.076923076923077" as="targetPoint" />
          </mxGeometry>
        </mxCell>
        <mxCell id="Ex0_d51_IfUy_OUosHDZ-167" value="" style="endArrow=none;html=1;rounded=0;" edge="1" parent="Ex0_d51_IfUy_OUosHDZ-163">
          <mxGeometry width="50" height="50" relative="1" as="geometry">
            <mxPoint x="9.230769230769242" as="sourcePoint" />
            <mxPoint x="9.230769230769242" y="3.076923076923077" as="targetPoint" />
          </mxGeometry>
        </mxCell>
        <mxCell id="Ex0_d51_IfUy_OUosHDZ-168" value="" style="group" vertex="1" connectable="0" parent="Ex0_d51_IfUy_OUosHDZ-137">
          <mxGeometry y="6.153846153846154" width="3.076923076923077" height="33.84615384615385" as="geometry" />
        </mxCell>
        <mxCell id="Ex0_d51_IfUy_OUosHDZ-169" value="" style="group" vertex="1" connectable="0" parent="Ex0_d51_IfUy_OUosHDZ-168">
          <mxGeometry width="3.076923076923077" height="15.384615384615385" as="geometry" />
        </mxCell>
        <mxCell id="Ex0_d51_IfUy_OUosHDZ-170" value="" style="endArrow=none;html=1;rounded=0;" edge="1" parent="Ex0_d51_IfUy_OUosHDZ-169">
          <mxGeometry width="50" height="50" relative="1" as="geometry">
            <mxPoint as="sourcePoint" />
            <mxPoint x="3.076923076923077" as="targetPoint" />
          </mxGeometry>
        </mxCell>
        <mxCell id="Ex0_d51_IfUy_OUosHDZ-171" value="" style="endArrow=none;html=1;rounded=0;" edge="1" parent="Ex0_d51_IfUy_OUosHDZ-169">
          <mxGeometry width="50" height="50" relative="1" as="geometry">
            <mxPoint y="3.076923076923077" as="sourcePoint" />
            <mxPoint x="3.076923076923077" y="3.076923076923077" as="targetPoint" />
          </mxGeometry>
        </mxCell>
        <mxCell id="Ex0_d51_IfUy_OUosHDZ-172" value="" style="endArrow=none;html=1;rounded=0;" edge="1" parent="Ex0_d51_IfUy_OUosHDZ-169">
          <mxGeometry width="50" height="50" relative="1" as="geometry">
            <mxPoint y="6.153846153846154" as="sourcePoint" />
            <mxPoint x="3.076923076923077" y="6.153846153846154" as="targetPoint" />
          </mxGeometry>
        </mxCell>
        <mxCell id="Ex0_d51_IfUy_OUosHDZ-173" value="" style="endArrow=none;html=1;rounded=0;" edge="1" parent="Ex0_d51_IfUy_OUosHDZ-169">
          <mxGeometry width="50" height="50" relative="1" as="geometry">
            <mxPoint y="9.230769230769232" as="sourcePoint" />
            <mxPoint x="3.076923076923077" y="9.230769230769232" as="targetPoint" />
          </mxGeometry>
        </mxCell>
        <mxCell id="Ex0_d51_IfUy_OUosHDZ-174" value="" style="endArrow=none;html=1;rounded=0;" edge="1" parent="Ex0_d51_IfUy_OUosHDZ-169">
          <mxGeometry width="50" height="50" relative="1" as="geometry">
            <mxPoint y="12.307692307692308" as="sourcePoint" />
            <mxPoint x="3.076923076923077" y="12.307692307692308" as="targetPoint" />
          </mxGeometry>
        </mxCell>
        <mxCell id="Ex0_d51_IfUy_OUosHDZ-175" value="" style="endArrow=none;html=1;rounded=0;" edge="1" parent="Ex0_d51_IfUy_OUosHDZ-169">
          <mxGeometry width="50" height="50" relative="1" as="geometry">
            <mxPoint y="15.384615384615385" as="sourcePoint" />
            <mxPoint x="3.076923076923077" y="15.384615384615385" as="targetPoint" />
          </mxGeometry>
        </mxCell>
        <mxCell id="Ex0_d51_IfUy_OUosHDZ-176" value="" style="group" vertex="1" connectable="0" parent="Ex0_d51_IfUy_OUosHDZ-168">
          <mxGeometry y="18.461538461538463" width="3.076923076923077" height="15.384615384615385" as="geometry" />
        </mxCell>
        <mxCell id="Ex0_d51_IfUy_OUosHDZ-177" value="" style="endArrow=none;html=1;rounded=0;" edge="1" parent="Ex0_d51_IfUy_OUosHDZ-176">
          <mxGeometry width="50" height="50" relative="1" as="geometry">
            <mxPoint as="sourcePoint" />
            <mxPoint x="3.076923076923077" as="targetPoint" />
          </mxGeometry>
        </mxCell>
        <mxCell id="Ex0_d51_IfUy_OUosHDZ-178" value="" style="endArrow=none;html=1;rounded=0;" edge="1" parent="Ex0_d51_IfUy_OUosHDZ-176">
          <mxGeometry width="50" height="50" relative="1" as="geometry">
            <mxPoint y="3.076923076923077" as="sourcePoint" />
            <mxPoint x="3.076923076923077" y="3.076923076923077" as="targetPoint" />
          </mxGeometry>
        </mxCell>
        <mxCell id="Ex0_d51_IfUy_OUosHDZ-179" value="" style="endArrow=none;html=1;rounded=0;" edge="1" parent="Ex0_d51_IfUy_OUosHDZ-176">
          <mxGeometry width="50" height="50" relative="1" as="geometry">
            <mxPoint y="6.153846153846154" as="sourcePoint" />
            <mxPoint x="3.076923076923077" y="6.153846153846154" as="targetPoint" />
          </mxGeometry>
        </mxCell>
        <mxCell id="Ex0_d51_IfUy_OUosHDZ-180" value="" style="endArrow=none;html=1;rounded=0;" edge="1" parent="Ex0_d51_IfUy_OUosHDZ-176">
          <mxGeometry width="50" height="50" relative="1" as="geometry">
            <mxPoint y="9.230769230769232" as="sourcePoint" />
            <mxPoint x="3.076923076923077" y="9.230769230769232" as="targetPoint" />
          </mxGeometry>
        </mxCell>
        <mxCell id="Ex0_d51_IfUy_OUosHDZ-181" value="" style="group" vertex="1" connectable="0" parent="Ex0_d51_IfUy_OUosHDZ-137">
          <mxGeometry x="36.92307692307693" y="6.153846153846154" width="3.076923076923077" height="33.84615384615385" as="geometry" />
        </mxCell>
        <mxCell id="Ex0_d51_IfUy_OUosHDZ-182" value="" style="group" vertex="1" connectable="0" parent="Ex0_d51_IfUy_OUosHDZ-181">
          <mxGeometry width="3.076923076923077" height="15.384615384615385" as="geometry" />
        </mxCell>
        <mxCell id="Ex0_d51_IfUy_OUosHDZ-183" value="" style="endArrow=none;html=1;rounded=0;" edge="1" parent="Ex0_d51_IfUy_OUosHDZ-182">
          <mxGeometry width="50" height="50" relative="1" as="geometry">
            <mxPoint as="sourcePoint" />
            <mxPoint x="3.076923076923077" as="targetPoint" />
          </mxGeometry>
        </mxCell>
        <mxCell id="Ex0_d51_IfUy_OUosHDZ-184" value="" style="endArrow=none;html=1;rounded=0;" edge="1" parent="Ex0_d51_IfUy_OUosHDZ-182">
          <mxGeometry width="50" height="50" relative="1" as="geometry">
            <mxPoint y="3.076923076923077" as="sourcePoint" />
            <mxPoint x="3.076923076923077" y="3.076923076923077" as="targetPoint" />
          </mxGeometry>
        </mxCell>
        <mxCell id="Ex0_d51_IfUy_OUosHDZ-185" value="" style="endArrow=none;html=1;rounded=0;" edge="1" parent="Ex0_d51_IfUy_OUosHDZ-182">
          <mxGeometry width="50" height="50" relative="1" as="geometry">
            <mxPoint y="6.153846153846154" as="sourcePoint" />
            <mxPoint x="3.076923076923077" y="6.153846153846154" as="targetPoint" />
          </mxGeometry>
        </mxCell>
        <mxCell id="Ex0_d51_IfUy_OUosHDZ-186" value="" style="endArrow=none;html=1;rounded=0;" edge="1" parent="Ex0_d51_IfUy_OUosHDZ-182">
          <mxGeometry width="50" height="50" relative="1" as="geometry">
            <mxPoint y="9.230769230769232" as="sourcePoint" />
            <mxPoint x="3.076923076923077" y="9.230769230769232" as="targetPoint" />
          </mxGeometry>
        </mxCell>
        <mxCell id="Ex0_d51_IfUy_OUosHDZ-187" value="" style="endArrow=none;html=1;rounded=0;" edge="1" parent="Ex0_d51_IfUy_OUosHDZ-182">
          <mxGeometry width="50" height="50" relative="1" as="geometry">
            <mxPoint y="12.307692307692308" as="sourcePoint" />
            <mxPoint x="3.076923076923077" y="12.307692307692308" as="targetPoint" />
          </mxGeometry>
        </mxCell>
        <mxCell id="Ex0_d51_IfUy_OUosHDZ-188" value="" style="endArrow=none;html=1;rounded=0;" edge="1" parent="Ex0_d51_IfUy_OUosHDZ-182">
          <mxGeometry width="50" height="50" relative="1" as="geometry">
            <mxPoint y="15.384615384615385" as="sourcePoint" />
            <mxPoint x="3.076923076923077" y="15.384615384615385" as="targetPoint" />
          </mxGeometry>
        </mxCell>
        <mxCell id="Ex0_d51_IfUy_OUosHDZ-189" value="" style="group" vertex="1" connectable="0" parent="Ex0_d51_IfUy_OUosHDZ-181">
          <mxGeometry y="18.461538461538463" width="3.076923076923077" height="15.384615384615385" as="geometry" />
        </mxCell>
        <mxCell id="Ex0_d51_IfUy_OUosHDZ-190" value="" style="endArrow=none;html=1;rounded=0;" edge="1" parent="Ex0_d51_IfUy_OUosHDZ-189">
          <mxGeometry width="50" height="50" relative="1" as="geometry">
            <mxPoint as="sourcePoint" />
            <mxPoint x="3.076923076923077" as="targetPoint" />
          </mxGeometry>
        </mxCell>
        <mxCell id="Ex0_d51_IfUy_OUosHDZ-191" value="" style="endArrow=none;html=1;rounded=0;" edge="1" parent="Ex0_d51_IfUy_OUosHDZ-189">
          <mxGeometry width="50" height="50" relative="1" as="geometry">
            <mxPoint y="3.076923076923077" as="sourcePoint" />
            <mxPoint x="3.076923076923077" y="3.076923076923077" as="targetPoint" />
          </mxGeometry>
        </mxCell>
        <mxCell id="Ex0_d51_IfUy_OUosHDZ-192" value="" style="endArrow=none;html=1;rounded=0;" edge="1" parent="Ex0_d51_IfUy_OUosHDZ-189">
          <mxGeometry width="50" height="50" relative="1" as="geometry">
            <mxPoint y="6.153846153846154" as="sourcePoint" />
            <mxPoint x="3.076923076923077" y="6.153846153846154" as="targetPoint" />
          </mxGeometry>
        </mxCell>
        <mxCell id="Ex0_d51_IfUy_OUosHDZ-193" value="" style="endArrow=none;html=1;rounded=0;" edge="1" parent="Ex0_d51_IfUy_OUosHDZ-189">
          <mxGeometry width="50" height="50" relative="1" as="geometry">
            <mxPoint y="9.230769230769232" as="sourcePoint" />
            <mxPoint x="3.076923076923077" y="9.230769230769232" as="targetPoint" />
          </mxGeometry>
        </mxCell>
      </root>
    </mxGraphModel>
  </diagram>
</mxfile>
